<svg width="36" height="37" viewBox="0 0 36 37" fill="none" xmlns="http://www.w3.org/2000/svg">
<g clip-path="url(#clip0)">
<path d="M7.10593 6.53561C5.41885 6.53561 4.0293 7.97032 4.0293 9.71224V26.6543C4.0293 28.3962 5.41885 29.8309 7.10593 29.8309H12.2337V27.7131H7.10593C6.52862 27.7131 6.08039 27.2503 6.08039 26.6543V12.8889H30.6935V23.4776H32.7446V9.71224C32.7446 7.97032 31.355 6.53561 29.6679 6.53561H7.10593ZM7.10593 8.65337H29.6679C30.2453 8.65337 30.6935 9.11616 30.6935 9.71224V10.7711H6.08039V9.71224C6.08039 9.11616 6.52862 8.65337 7.10593 8.65337ZM10.1826 17.1244V19.2421H12.2337V17.1244H10.1826ZM14.2848 17.1244V19.2421H26.5913V17.1244H14.2848ZM10.1826 21.3599V23.4776H12.2337V21.3599H10.1826ZM14.2848 21.3599V23.4776H20.438V21.3599H14.2848ZM24.5402 23.4776C18.6914 23.4776 15.4545 29.2932 15.4545 29.2932L15.134 29.8474L15.4665 30.3934C15.4665 30.3934 18.8403 36.1841 24.5402 36.1841C30.2401 36.1841 33.6139 30.3934 33.6139 30.3934L33.9464 29.8474L33.6259 29.2932C33.6259 29.2932 30.389 23.4776 24.5402 23.4776ZM24.5402 25.5954C28.515 25.5954 30.8431 28.9567 31.4066 29.8185C30.8117 30.6791 28.3458 34.0664 24.5402 34.0664C20.7346 34.0664 18.2687 30.6791 17.6739 29.8185C18.2373 28.9567 20.5655 25.5954 24.5402 25.5954ZM24.5402 27.7131C23.9962 27.7131 23.4745 27.9363 23.0899 28.3334C22.7052 28.7306 22.4891 29.2692 22.4891 29.8309C22.4891 30.3925 22.7052 30.9312 23.0899 31.3284C23.4745 31.7255 23.9962 31.9486 24.5402 31.9486C25.0842 31.9486 25.6059 31.7255 25.9905 31.3284C26.3752 30.9312 26.5913 30.3925 26.5913 29.8309C26.5913 29.2692 26.3752 28.7306 25.9905 28.3334C25.6059 27.9363 25.0842 27.7131 24.5402 27.7131Z" fill="#0EC88C"/>
</g>
<defs>
<clipPath id="clip0">
<rect width="34.7631" height="35.8929" fill="white" transform="translate(0.553711 0.553467)"/>
</clipPath>
</defs>
</svg>
