<svg width="36" height="37" viewBox="0 0 36 37" fill="none" xmlns="http://www.w3.org/2000/svg">
<path d="M17.356 24.1808C18.0282 24.1808 18.5731 23.6184 18.5731 22.9246C18.5731 22.2308 18.0282 21.6683 17.356 21.6683C16.6838 21.6683 16.1389 22.2308 16.1389 22.9246C16.1389 23.6184 16.6838 24.1808 17.356 24.1808Z" fill="#FEB303"/>
<path d="M16.1389 20.4142H18.5723V19.1579C18.5723 19.161 18.578 19.1545 18.591 19.1396C18.623 19.1033 18.6986 19.0172 18.8405 18.901C18.9624 18.8012 19.0002 18.7753 19.3082 18.5737C20.356 17.8878 21.0057 16.6951 21.0057 15.3892C21.0057 13.3077 19.3715 11.6204 17.3556 11.6204C15.3397 11.6204 13.7054 13.3077 13.7054 15.3892H16.1389C16.1389 14.6954 16.6836 14.1329 17.3556 14.1329C18.0275 14.1329 18.5723 14.6954 18.5723 15.3892C18.5723 15.8255 18.3563 16.2219 18.0052 16.4517C17.6113 16.7096 17.5459 16.7543 17.3282 16.9327C16.6045 17.5254 16.1389 18.2317 16.1389 19.1579V20.4142Z" fill="#FEB303"/>
<path fill-rule="evenodd" clip-rule="evenodd" d="M17.3556 30.4642C19.4538 30.4642 21.4766 29.9139 23.2681 28.8835L28.4211 29.3269L27.9917 24.0064C28.9897 22.1566 29.5226 20.0681 29.5226 17.9017C29.5226 10.9636 24.0753 5.33917 17.3556 5.33917C10.6359 5.33917 5.18848 10.9636 5.18848 17.9017C5.18848 24.8398 10.6359 30.4642 17.3556 30.4642ZM22.3623 26.5222L22.6989 26.3133L25.7573 26.5765L25.5024 23.4186L25.7048 23.0711C26.6062 21.5227 27.0892 19.7503 27.0892 17.9017C27.0892 12.3512 22.7313 7.85167 17.3556 7.85167C11.9798 7.85167 7.62189 12.3512 7.62189 17.9017C7.62189 23.4521 11.9798 27.9517 17.3556 27.9517C19.146 27.9517 20.8626 27.453 22.3623 26.5222Z" fill="#FEB303"/>
</svg>
