<svg width="36" height="37" viewBox="0 0 36 37" fill="none" xmlns="http://www.w3.org/2000/svg">
<path fill-rule="evenodd" clip-rule="evenodd" d="M25.5828 19.816V29.0285H7.73777V10.6035H14.1365C14.2002 9.66905 14.4169 8.78728 14.7483 7.97132H7.73777C6.33566 7.97132 5.18848 9.15578 5.18848 10.6035V29.0285C5.18848 30.4761 6.33566 31.6606 7.73777 31.6606H25.5828C26.9849 31.6606 28.1321 30.4761 28.1321 29.0285V22.4481L25.5828 19.816ZM27.2398 14.4069C27.8007 13.4857 28.1321 12.4196 28.1321 11.2615C28.1321 7.98448 25.5701 5.33917 22.3962 5.33917C19.2223 5.33917 16.6603 7.98448 16.6603 11.2615C16.6603 14.5385 19.2223 17.1838 22.3834 17.1838C23.5051 17.1838 24.5503 16.8416 25.4298 16.2626L29.4067 20.3687L31.2167 18.4999L27.2398 14.4069ZM22.3962 14.5517C20.6372 14.5517 19.2096 13.0777 19.2096 11.2615C19.2096 9.44531 20.6372 7.97132 22.3962 7.97132C24.1552 7.97132 25.5828 9.44531 25.5828 11.2615C25.5828 13.0777 24.1552 14.5517 22.3962 14.5517Z" fill="#BC31EA"/>
</svg>
