<svg width="36" height="37" viewBox="0 0 36 37" fill="none" xmlns="http://www.w3.org/2000/svg">
<g clip-path="url(#clip0)">
<path d="M3.5177 6.53561C1.78119 6.53561 0.357422 8.00566 0.357422 9.7986V25.0259C0.357422 26.8188 1.78119 28.2889 3.5177 28.2889H4.76865C5.20483 29.5465 6.36525 30.4642 7.73141 30.4642C9.09758 30.4642 10.258 29.5465 10.6942 28.2889H23.6727C24.1089 29.5465 25.2693 30.4642 26.6355 30.4642C28.0017 30.4642 29.1621 29.5465 29.5983 28.2889H30.9068C32.6351 28.2889 34.0671 26.8188 34.0671 25.0259V21.338C34.0671 20.6922 33.8778 20.0549 33.5322 19.5196L30.2484 14.5146C29.6559 13.6054 28.6683 13.0616 27.6149 13.0616H21.426V9.7986C21.426 8.00566 20.0022 6.53561 18.2657 6.53561H3.5177ZM3.5177 8.71094H18.2657C18.8582 8.71094 19.3191 9.18679 19.3191 9.7986V26.1135H10.6942C10.258 24.8559 9.09758 23.9382 7.73141 23.9382C6.36525 23.9382 5.20483 24.8559 4.76865 26.1135H3.5177C2.92515 26.1135 2.46428 25.6377 2.46428 25.0259V9.7986C2.46428 9.18679 2.92515 8.71094 3.5177 8.71094ZM15.4181 13.0956L9.83827 18.8653L6.36525 15.2794L4.88387 16.8174L9.83827 21.9413L16.8995 14.6421L15.4181 13.0956ZM21.426 15.2369H27.6149C27.9687 15.2369 28.2979 15.4239 28.4955 15.7213V15.7298L31.7792 20.7347C31.8944 20.9131 31.9602 21.1171 31.9602 21.338V25.0259C31.9602 25.6377 31.4994 26.1135 30.9068 26.1135H29.5983C29.1621 24.8559 28.0017 23.9382 26.6355 23.9382C25.2693 23.9382 24.1089 24.8559 23.6727 26.1135H21.426V15.2369ZM7.73141 26.1135C8.32397 26.1135 8.78484 26.5894 8.78484 27.2012C8.78484 27.813 8.32397 28.2889 7.73141 28.2889C7.13886 28.2889 6.67799 27.813 6.67799 27.2012C6.67799 26.5894 7.13886 26.1135 7.73141 26.1135ZM26.6355 26.1135C27.228 26.1135 27.6889 26.5894 27.6889 27.2012C27.6889 27.813 27.228 28.2889 26.6355 28.2889C26.0429 28.2889 25.5821 27.813 25.5821 27.2012C25.5821 26.5894 26.0429 26.1135 26.6355 26.1135Z" fill="#6671F3"/>
</g>
<defs>
<clipPath id="clip0">
<rect width="34.7631" height="35.8929" fill="white" transform="translate(0.357422 0.553467)"/>
</clipPath>
</defs>
</svg>
