<svg width="37" height="37" viewBox="0 0 37 37" fill="none" xmlns="http://www.w3.org/2000/svg">
<path d="M3.25586 4.14285V6.44368H7.862C8.36002 6.44368 8.78103 6.76641 8.94051 7.23459L11.0885 26.3871C11.2809 28.1254 12.7706 29.4519 14.5173 29.4519H14.76H26.2641H28.5649V27.1511H14.5173C13.9218 27.1511 13.4412 26.7212 13.3759 26.131L13.2321 24.8503H29.7153C31.6078 24.8503 33.1666 23.2915 33.1666 21.399V12.1957C33.1666 10.3032 31.6078 8.7445 29.7153 8.7445H11.4256L11.1919 6.67286L11.156 6.5695C10.7086 5.13112 9.3688 4.14285 7.862 4.14285H3.25586ZM26.2641 29.4519C25.6539 29.4519 25.0687 29.6943 24.6372 30.1258C24.2057 30.5573 23.9633 31.1425 23.9633 31.7527C23.9633 32.363 24.2057 32.9482 24.6372 33.3797C25.0687 33.8112 25.6539 34.0536 26.2641 34.0536C26.8743 34.0536 27.4595 33.8112 27.891 33.3797C28.3225 32.9482 28.5649 32.363 28.5649 31.7527C28.5649 31.1425 28.3225 30.5573 27.891 30.1258C27.4595 29.6943 26.8743 29.4519 26.2641 29.4519ZM14.76 29.4519C14.1498 29.4519 13.5645 29.6943 13.1331 30.1258C12.7016 30.5573 12.4592 31.1425 12.4592 31.7527C12.4592 32.363 12.7016 32.9482 13.1331 33.3797C13.5645 33.8112 14.1498 34.0536 14.76 34.0536C15.3702 34.0536 15.9554 33.8112 16.3869 33.3797C16.8184 32.9482 17.0608 32.363 17.0608 31.7527C17.0608 31.1425 16.8184 30.5573 16.3869 30.1258C15.9554 29.6943 15.3702 29.4519 14.76 29.4519ZM11.6817 11.0453H29.7153C30.3629 11.0453 30.8657 11.5481 30.8657 12.1957V21.399C30.8657 22.0466 30.3629 22.5494 29.7153 22.5494H12.9759L11.6817 11.0453ZM19.3616 13.3461V15.647H23.9633V13.3461H19.3616Z" fill="#21B1DF"/>
</svg>
