<svg xmlns="http://www.w3.org/2000/svg" version="1.1" xmlns:xlink="http://www.w3.org/1999/xlink" xmlns:svgjs="http://svgjs.com/svgjs" width="1440" height="740" preserveAspectRatio="none" viewBox="0 0 1440 740"><g mask="url(&quot;#SvgjsMask3299&quot;)" fill="none"><rect width="1440" height="740" x="0" y="0" fill="url(#SvgjsLinearGradient3300)"></rect><path d="M8 740L748 0L1019.5 0L279.5 740z" fill="url(#SvgjsLinearGradient3301)"></path><path d="M525.2 740L1265.2 0L1422.7 0L682.7 740z" fill="url(#SvgjsLinearGradient3301)"></path><path d="M1413 740L673 0L235 0L975 740z" fill="url(#SvgjsLinearGradient3302)"></path><path d="M914.8 740L174.79999999999995 0L-122.20000000000005 0L617.8 740z" fill="url(#SvgjsLinearGradient3302)"></path><path d="M866.4871681630289 740L1440 166.48716816302885L1440 740z" fill="url(#SvgjsLinearGradient3301)"></path><path d="M0 740L573.5128318369711 740L 0 166.48716816302885z" fill="url(#SvgjsLinearGradient3302)"></path></g><defs><mask id="SvgjsMask3299"><rect width="1440" height="740" fill="#ffffff"></rect></mask><linearGradient x1="12.15%" y1="-23.65%" x2="87.85%" y2="123.65%" gradientUnits="userSpaceOnUse" id="SvgjsLinearGradient3300"><stop stop-color="#0e2a47" offset="0"></stop><stop stop-color="rgba(8, 29, 57, 1)" offset="1"></stop></linearGradient><linearGradient x1="0%" y1="100%" x2="100%" y2="0%" id="SvgjsLinearGradient3301"><stop stop-color="rgba(15, 70, 185, 0.2)" offset="0"></stop><stop stop-opacity="0" stop-color="rgba(15, 70, 185, 0.2)" offset="0.66"></stop></linearGradient><linearGradient x1="100%" y1="100%" x2="0%" y2="0%" id="SvgjsLinearGradient3302"><stop stop-color="rgba(15, 70, 185, 0.2)" offset="0"></stop><stop stop-opacity="0" stop-color="rgba(15, 70, 185, 0.2)" offset="0.66"></stop></linearGradient></defs></svg>