<svg width="12" height="12" viewBox="0 0 12 12" fill="none" xmlns="http://www.w3.org/2000/svg">
<path d="M5.53084 1.27322C5.69156 0.837058 6.30844 0.837058 6.46916 1.27322L7.48624 4.03339C7.55528 4.22074 7.72916 4.34906 7.92853 4.35979L10.7578 4.51208C11.2077 4.5363 11.3986 5.09647 11.0571 5.39035L8.80908 7.32488C8.66561 7.44835 8.60415 7.64224 8.65031 7.82581L9.38099 10.7314C9.4929 11.1765 8.99639 11.5246 8.61616 11.2677L6.27993 9.68914C6.1108 9.57487 5.8892 9.57487 5.72007 9.68914L3.38384 11.2677C3.00361 11.5246 2.50709 11.1765 2.619 10.7314L3.34969 7.82581C3.39585 7.64224 3.33439 7.44835 3.19092 7.32488L0.942896 5.39035C0.601394 5.09647 0.792269 4.5363 1.24216 4.51208L4.07147 4.35979C4.27084 4.34906 4.44472 4.22074 4.51376 4.03339L5.53084 1.27322Z" fill="white"/>
</svg>
